<?xml version="1.0" encoding="utf-8"?>
<!-- Generator: Adobe Illustrator 24.0.1, SVG Export Plug-In . SVG Version: 6.00 Build 0)  -->
<svg version="1.1" id="Layer_1" xmlns="http://www.w3.org/2000/svg" xmlns:xlink="http://www.w3.org/1999/xlink" x="0px" y="0px"
	 viewBox="0 0 104 48" style="enable-background:new 0 0 104 48;" xml:space="preserve">
<style type="text/css">
	.st0{fill:#FFFFFD;}
	.st1{fill:#EADE06;}
	.st2{fill:#379FF4;}
	.st3{fill:#240DCC;}
	.st4{font-family:'Impact';}
	.st5{font-size:18px;}
	.st6{font-family:'EstrangeloEdessa';}
	.st7{font-size:10px;}
</style>
<g>
	<path class="st0" d="M29.1,1.1H74c12.7,0,22.9,10.3,22.9,22.9S86.7,46.9,74,46.9H29.1c-12.7,0-23-10.2-23-22.9S16.4,1.1,29.1,1.1
		L29.1,1.1z"/>
	<path class="st1" d="M28.6,41.8c-5.1,0-9.9-1.6-13.7-4.6l0,0c-4.3-3.4-6.8-8.2-6.8-13.3c0-2.6,0.6-5,1.8-7.4c1.6-3,4.1-5.6,7.2-7.4
		L13.9,5c-4,2.4-7.2,5.7-9.3,9.6c-1.6,3-2.3,6.2-2.3,9.5c0,6.5,3.2,12.7,8.7,17.1l0,0c4.8,3.8,11.1,5.9,17.6,5.9h18.7l1.6-2.5
		l-1.6-2.5L28.6,41.8L28.6,41.8z"/>
	<path class="st2" d="M84.3,2.4L84.3,2.4C81.4,1.5,78.4,1,75.4,1H28.6c-5.3,0-10.4,1.4-14.7,3.9l0.2,3.2l3.1,1c3.4-2,7.3-3,11.4-3
		h46.8c2.4,0,4.7,0.4,6.9,1.1l0,0c2.8,0.9,5.4,2.3,7.5,4.2L94,7.8C91.3,5.4,87.9,3.5,84.3,2.4L84.3,2.4z"/>
	<path class="st3" d="M94,7.8l-3.5,0.6l-0.6,3c3.9,3.4,6,7.9,6,12.6c0,1.6-0.2,3.1-0.7,4.6c-2.4,7.8-10.5,13.2-19.8,13.2H47.3
		l1.6,2.5l-1.6,2.5h28.1c11.9,0,22.3-7,25.4-17c0.6-1.9,0.9-3.9,0.9-6C101.7,17.9,99,12.1,94,7.8L94,7.8z"/>
	<text transform="matrix(1 0 0 1 17.9156 29.5936)" class="st4 st5">+ </text>
	<text transform="matrix(2.0174 3.521385e-02 -1.745241e-02 0.9998 32.6554 26.0505)" class="st6 st7"> S E L L</text>
</g>
</svg>
